<svg width="60" height="56" viewBox="0 0 24 24" fill="none" xmlns="http://www.w3.org/2000/svg">
<path d="M3.5 18.75C3.09 18.75 2.75 18.41 2.75 18V7C2.75 2.59 4.09 1.25 8.5 1.25H15.5C19.91 1.25 21.25 2.59 21.25 7V17C21.25 17.16 21.25 17.31 21.24 17.47C21.21 17.88 20.84 18.2 20.44 18.17C20.2416 18.1554 20.057 18.0632 19.926 17.9135C19.795 17.7638 19.7282 17.5686 19.74 17.37C19.75 17.25 19.75 17.12 19.75 17V7C19.75 3.43 19.08 2.75 15.5 2.75H8.5C4.92 2.75 4.25 3.43 4.25 7V18C4.25 18.41 3.91 18.75 3.5 18.75Z" fill="black"/>
<path d="M17 22.75H7C5.87364 22.7474 4.79417 22.2987 3.99771 21.5023C3.20126 20.7058 2.75264 19.6264 2.75 18.5V17.85C2.75 15.86 4.37 14.25 6.35 14.25H20.5C20.91 14.25 21.25 14.59 21.25 15V18.5C21.2474 19.6264 20.7987 20.7058 20.0023 21.5023C19.2058 22.2987 18.1264 22.7474 17 22.75ZM6.35 15.75C5.79305 15.75 5.2589 15.9712 4.86508 16.3651C4.47125 16.7589 4.25 17.293 4.25 17.85V18.5C4.25 20.02 5.48 21.25 7 21.25H17C18.52 21.25 19.75 20.02 19.75 18.5V15.75H6.35ZM16 7.75H8C7.59 7.75 7.25 7.41 7.25 7C7.25 6.59 7.59 6.25 8 6.25H16C16.41 6.25 16.75 6.59 16.75 7C16.75 7.41 16.41 7.75 16 7.75ZM13 11.25H8C7.59 11.25 7.25 10.91 7.25 10.5C7.25 10.09 7.59 9.75 8 9.75H13C13.41 9.75 13.75 10.09 13.75 10.5C13.75 10.91 13.41 11.25 13 11.25Z" fill="black"/>
</svg>
