<svg width="60" height="56" viewBox="0 0 24 24" fill="none" xmlns="http://www.w3.org/2000/svg">
<path d="M15 22.75H9C3.57 22.75 1.25 20.43 1.25 15V9C1.25 3.57 3.57 1.25 9 1.25H15C20.43 1.25 22.75 3.57 22.75 9V15C22.75 20.43 20.43 22.75 15 22.75ZM9 2.75C4.39 2.75 2.75 4.39 2.75 9V15C2.75 19.61 4.39 21.25 9 21.25H15C19.61 21.25 21.25 19.61 21.25 15V9C21.25 4.39 19.61 2.75 15 2.75H9Z" fill="black"/>
<path d="M10.0827 16.13H15.0027C15.4127 16.13 15.7527 15.79 15.7527 15.38C15.7527 14.97 15.4127 14.63 15.0027 14.63H10.0827C8.80272 14.63 7.75272 13.59 7.75272 12.3C7.75272 11.01 8.79272 9.97 10.0827 9.97H16.8527C17.2627 9.97 17.6027 9.63 17.6027 9.22C17.6027 8.81 17.2627 8.47 16.8527 8.47H10.0827C7.97272 8.47 6.25272 10.19 6.25272 12.3C6.25272 14.41 7.97272 16.13 10.0827 16.13Z" fill="black"/>
<path d="M15.4327 11.52C15.6227 11.52 15.8127 11.45 15.9627 11.3L17.5327 9.73001C17.6719 9.58874 17.75 9.39836 17.75 9.20001C17.75 9.00166 17.6719 8.81127 17.5327 8.67001L15.9627 7.10001C15.6727 6.81001 15.1927 6.81001 14.9027 7.10001C14.6127 7.39001 14.6127 7.87001 14.9027 8.16001L15.9427 9.20001L14.9027 10.24C14.7979 10.3449 14.7266 10.4785 14.6977 10.6239C14.6689 10.7693 14.6837 10.92 14.7404 11.0569C14.7971 11.1939 14.8932 11.311 15.0164 11.3934C15.1396 11.4758 15.2845 11.5199 15.4327 11.52Z" fill="black"/>
</svg>
